<?xml version="1.0" encoding="utf-8"?>
<svg width="600" height="394.57599" viewBox="0 0 600.00006 394.57604" id="svg2" version="1.1" xmlns="http://www.w3.org/2000/svg">
  <g id="layer1" transform="translate(0,-657.78541)">
    <g style="" transform="matrix(2.461307, 0, 0, 3.242306, -437.691254, -1870.546143)">
      <path id="path5837" d="M 199.226 894.681 C 195.502 889.41 195.637 889.206 203.987 887.478 C 214.837 885.233 229.721 877.807 245.315 866.86 L 257.467 858.329 L 240.454 875.779 C 216.405 900.447 206.506 904.985 199.226 894.681 L 199.226 894.681 Z M 381.42 895.542 C 377.409 893.043 367.019 883.646 358.331 874.661 L 342.533 858.324 L 354.685 866.858 C 370.276 877.805 385.161 885.232 396.014 887.478 C 404.363 889.206 404.498 889.41 400.774 894.681 C 396.105 901.29 391.005 901.517 381.42 895.542 L 381.42 895.542 Z M 185.532 878.171 C 181.828 874.497 180.84 871.364 181.922 866.72 C 186.179 848.439 186.237 832.176 182.108 814.785 C 178.497 799.573 178.298 795.456 180.878 789.277 C 185.707 777.712 191.819 777.827 230.77 790.217 L 265.974 801.415 L 265.974 824.048 L 265.974 846.681 L 249.569 858.949 C 217.893 882.634 196.503 889.055 185.532 878.171 L 185.532 878.171 Z M 378.102 876.599 C 371.229 872.953 358.501 864.75 349.816 858.371 L 334.026 846.772 L 334.026 824.093 L 334.026 801.415 L 369.23 790.217 C 408.181 777.827 414.293 777.712 419.122 789.277 C 421.702 795.456 421.503 799.573 417.892 814.785 C 413.763 832.176 413.822 848.439 418.078 866.72 C 419.16 871.364 418.172 874.497 414.468 878.171 C 407.225 885.357 393.491 884.763 378.102 876.599 L 378.102 876.599 Z M 291.494 852.729 C 288.82 852.093 283.078 850.475 278.734 849.132 L 270.835 846.692 L 270.835 823.899 C 270.835 796.9 270.01 797.642 300 797.642 C 329.99 797.642 329.165 796.9 329.165 823.899 L 329.165 846.692 L 321.266 849.169 C 310.479 852.552 297.351 854.121 291.494 852.729 L 291.494 852.729 Z" style="fill:#333333;fill-opacity:0.14344261;stroke:none;stroke-width:1"/>
      <path style="fill:#e3d1c8;fill-opacity:1;stroke:none;stroke-width:0.99999988" d="M 203.149 892.987 C 199.57 887.881 199.699 887.683 207.724 886.009 C 218.152 883.833 232.457 876.639 247.444 866.033 L 259.123 857.768 L 242.772 874.674 C 219.659 898.574 210.145 902.971 203.149 892.987 L 203.149 892.987 Z M 378.25 893.822 C 374.396 891.4 364.41 882.296 356.06 873.591 L 340.877 857.763 L 352.556 866.031 C 367.54 876.637 381.845 883.833 392.276 886.009 C 400.301 887.683 400.43 887.881 396.851 892.987 C 392.364 899.391 387.463 899.611 378.25 893.822 L 378.25 893.822 Z M 189.988 876.992 C 186.428 873.432 185.479 870.397 186.518 865.897 C 190.609 848.186 190.666 832.429 186.698 815.58 C 183.227 800.841 183.036 796.852 185.515 790.866 C 190.156 779.661 196.03 779.773 233.465 791.777 L 267.299 802.626 L 267.299 824.554 L 267.299 846.483 L 251.532 858.368 C 221.089 881.316 200.532 887.537 189.988 876.992 L 189.988 876.992 Z M 375.062 875.469 C 368.457 871.936 356.223 863.988 347.877 857.808 L 332.702 846.57 L 332.702 824.598 L 332.702 802.626 L 366.535 791.777 C 403.97 779.773 409.844 779.661 414.485 790.866 C 416.964 796.852 416.774 800.841 413.303 815.58 C 409.335 832.429 409.391 848.186 413.482 865.897 C 414.521 870.397 413.572 873.432 410.012 876.992 C 403.051 883.954 389.851 883.379 375.062 875.469 L 375.062 875.469 Z M 291.825 852.342 C 289.255 851.726 283.737 850.158 279.562 848.857 L 271.97 846.493 L 271.97 824.41 C 271.97 798.251 271.178 798.97 300 798.97 C 328.823 798.97 328.03 798.251 328.03 824.41 L 328.03 846.493 L 320.439 848.893 C 310.071 852.17 297.454 853.691 291.825 852.342 L 291.825 852.342 Z" id="path5760"/>
      <path style="fill:#333333;fill-opacity:0.00409833;stroke:none;stroke-width:1" d="M 199.226 894.681 C 195.502 889.41 195.637 889.206 203.987 887.478 C 214.837 885.233 229.721 877.807 245.315 866.86 L 257.467 858.329 L 240.454 875.779 C 216.405 900.447 206.506 904.985 199.226 894.681 L 199.226 894.681 Z M 381.42 895.542 C 377.409 893.043 367.019 883.646 358.331 874.661 L 342.533 858.324 L 354.685 866.858 C 370.276 877.805 385.161 885.232 396.014 887.478 C 404.363 889.206 404.498 889.41 400.774 894.681 C 396.105 901.29 391.005 901.517 381.42 895.542 L 381.42 895.542 Z M 185.532 878.171 C 181.828 874.497 180.84 871.364 181.922 866.72 C 186.179 848.439 186.237 832.176 182.108 814.785 C 178.497 799.573 178.298 795.456 180.878 789.277 C 185.707 777.712 191.819 777.827 230.77 790.217 L 265.974 801.415 L 265.974 824.048 L 265.974 846.681 L 249.569 858.949 C 217.893 882.634 196.503 889.055 185.532 878.171 L 185.532 878.171 Z M 378.102 876.599 C 371.229 872.953 358.501 864.75 349.816 858.371 L 334.026 846.772 L 334.026 824.093 L 334.026 801.415 L 369.23 790.217 C 408.181 777.827 414.293 777.712 419.122 789.277 C 421.702 795.456 421.503 799.573 417.892 814.785 C 413.763 832.176 413.822 848.439 418.078 866.72 C 419.16 871.364 418.172 874.497 414.468 878.171 C 407.225 885.357 393.491 884.763 378.102 876.599 L 378.102 876.599 Z M 291.494 852.729 C 288.82 852.093 283.078 850.475 278.734 849.132 L 270.835 846.692 L 270.835 823.899 C 270.835 796.9 270.01 797.642 300 797.642 C 329.99 797.642 329.165 796.9 329.165 823.899 L 329.165 846.692 L 321.266 849.169 C 310.479 852.552 297.351 854.121 291.494 852.729 L 291.494 852.729 Z" id="path5839"/>
    </g>
    <text style="font-style: normal; font-weight: normal; font-size: 8.03392px; line-height: 125%; font-family: sans-serif; letter-spacing: 0px; word-spacing: 0px; fill: rgb(255, 255, 255); fill-opacity: 0.315574; stroke: none; stroke-width: 1px; stroke-linecap: butt; stroke-linejoin: miter; stroke-opacity: 1; white-space: pre;" x="280.31335" y="1016.3969" id="text4523"><tspan id="tspan4521" x="280.31335" y="1016.3969" style="fill:#ffffff;fill-opacity:0.31557378;stroke-width:4.97888851px;">Smashing</tspan></text>
  </g>
</svg>